# xmcd
#
# Track frame offsets:
#	150
#	18460
#	34319
#	50482
#	66017
#	83605
#	96885
#	115477
#	131654
#	147531
#	165314
#	179276
#
# Disc length: 2618 seconds
#
# Revision: 0
# Processed by: cddbd v1.5.2PL0 Copyright (c) Steve Scherf et al.
# Submitted via: EasyCDDAExtractor 15.3.0.1
#
DISCID=a30a380c
DTITLE=Yazaira
DYEAR=2015
DGENRE=Latin
TTITLE0=Como Llorar
TTITLE1=Es Ella Mas Que Yo
TTITLE2=Corazon Partio
TTITLE3=Agonia
TTITLE4=Yo Te Esperaba
TTITLE5=Te Sigo Amando
TTITLE6=Alejate De Mi
TTITLE7=Estupida
TTITLE8=A Que No Le Cuentas
TTITLE9=Equivocada
TTITLE10=No Dare Marcha Atras
TTITLE11=Yo Te Prefiero
EXTD=
EXTT0=
EXTT1=
EXTT2=
EXTT3=
EXTT4=
EXTT5=
EXTT6=
EXTT7=
EXTT8=
EXTT9=
EXTT10=
EXTT11=
PLAYORDER=
